<mxfile host="Electron" agent="Mozilla/5.0 (Windows NT 10.0; Win64; x64) AppleWebKit/537.36 (KHTML, like Gecko) draw.io/28.0.6 Chrome/138.0.7204.100 Electron/37.2.3 Safari/537.36" version="28.0.6">
  <diagram name="Page-1" id="sEfVp9f2br1rGwJrzzIL">
    <mxGraphModel dx="409" dy="2357" grid="1" gridSize="10" guides="1" tooltips="1" connect="1" arrows="1" fold="1" page="0" pageScale="1" pageWidth="850" pageHeight="1100" math="0" shadow="0">
      <root>
        <mxCell id="0" />
        <mxCell id="1" parent="0" />
        <mxCell id="8bbRHCpA4bQuie2q-WtK-3" value="" style="edgeStyle=orthogonalEdgeStyle;rounded=0;orthogonalLoop=1;jettySize=auto;html=1;" parent="1" source="8bbRHCpA4bQuie2q-WtK-1" target="8bbRHCpA4bQuie2q-WtK-2" edge="1">
          <mxGeometry relative="1" as="geometry" />
        </mxCell>
        <mxCell id="8bbRHCpA4bQuie2q-WtK-1" value="start" style="ellipse;whiteSpace=wrap;html=1;" parent="1" vertex="1">
          <mxGeometry x="1760" y="165" width="120" height="80" as="geometry" />
        </mxCell>
        <mxCell id="8bbRHCpA4bQuie2q-WtK-5" value="" style="edgeStyle=orthogonalEdgeStyle;rounded=0;orthogonalLoop=1;jettySize=auto;html=1;" parent="1" source="8bbRHCpA4bQuie2q-WtK-2" target="8bbRHCpA4bQuie2q-WtK-4" edge="1">
          <mxGeometry relative="1" as="geometry" />
        </mxCell>
        <mxCell id="8bbRHCpA4bQuie2q-WtK-2" value="N = avgX = avgY = aX = aY = combXY = R = 0;&lt;div&gt;x = [], y = [];&lt;/div&gt;" style="whiteSpace=wrap;html=1;" parent="1" vertex="1">
          <mxGeometry x="1685" y="280" width="270" height="60" as="geometry" />
        </mxCell>
        <mxCell id="8bbRHCpA4bQuie2q-WtK-7" value="" style="edgeStyle=orthogonalEdgeStyle;rounded=0;orthogonalLoop=1;jettySize=auto;html=1;" parent="1" source="8bbRHCpA4bQuie2q-WtK-4" target="8bbRHCpA4bQuie2q-WtK-6" edge="1">
          <mxGeometry relative="1" as="geometry" />
        </mxCell>
        <mxCell id="8bbRHCpA4bQuie2q-WtK-4" value="N" style="shape=parallelogram;perimeter=parallelogramPerimeter;whiteSpace=wrap;html=1;fixedSize=1;" parent="1" vertex="1">
          <mxGeometry x="1760" y="380" width="120" height="60" as="geometry" />
        </mxCell>
        <mxCell id="8bbRHCpA4bQuie2q-WtK-9" value="" style="edgeStyle=orthogonalEdgeStyle;rounded=0;orthogonalLoop=1;jettySize=auto;html=1;" parent="1" source="8bbRHCpA4bQuie2q-WtK-6" target="8bbRHCpA4bQuie2q-WtK-8" edge="1">
          <mxGeometry relative="1" as="geometry" />
        </mxCell>
        <mxCell id="8bbRHCpA4bQuie2q-WtK-10" value="Yes" style="edgeLabel;html=1;align=center;verticalAlign=middle;resizable=0;points=[];" parent="8bbRHCpA4bQuie2q-WtK-9" vertex="1" connectable="0">
          <mxGeometry x="-0.1006" y="-1" relative="1" as="geometry">
            <mxPoint as="offset" />
          </mxGeometry>
        </mxCell>
        <mxCell id="8bbRHCpA4bQuie2q-WtK-17" value="" style="edgeStyle=orthogonalEdgeStyle;rounded=0;orthogonalLoop=1;jettySize=auto;html=1;" parent="1" source="8bbRHCpA4bQuie2q-WtK-6" target="8bbRHCpA4bQuie2q-WtK-16" edge="1">
          <mxGeometry relative="1" as="geometry">
            <Array as="points">
              <mxPoint x="1720" y="510" />
              <mxPoint x="1720" y="730" />
            </Array>
          </mxGeometry>
        </mxCell>
        <mxCell id="8bbRHCpA4bQuie2q-WtK-19" value="No" style="edgeLabel;html=1;align=center;verticalAlign=middle;resizable=0;points=[];" parent="8bbRHCpA4bQuie2q-WtK-17" vertex="1" connectable="0">
          <mxGeometry x="-0.8093" y="-1" relative="1" as="geometry">
            <mxPoint as="offset" />
          </mxGeometry>
        </mxCell>
        <mxCell id="8bbRHCpA4bQuie2q-WtK-6" value="i &amp;lt; N" style="rhombus;whiteSpace=wrap;html=1;" parent="1" vertex="1">
          <mxGeometry x="1780" y="470" width="80" height="80" as="geometry" />
        </mxCell>
        <mxCell id="8bbRHCpA4bQuie2q-WtK-12" value="" style="edgeStyle=orthogonalEdgeStyle;rounded=0;orthogonalLoop=1;jettySize=auto;html=1;" parent="1" source="8bbRHCpA4bQuie2q-WtK-8" target="8bbRHCpA4bQuie2q-WtK-11" edge="1">
          <mxGeometry relative="1" as="geometry" />
        </mxCell>
        <mxCell id="8bbRHCpA4bQuie2q-WtK-8" value="x[i]" style="shape=parallelogram;perimeter=parallelogramPerimeter;whiteSpace=wrap;html=1;fixedSize=1;" parent="1" vertex="1">
          <mxGeometry x="1910" y="480" width="120" height="60" as="geometry" />
        </mxCell>
        <mxCell id="8bbRHCpA4bQuie2q-WtK-21" value="" style="edgeStyle=orthogonalEdgeStyle;rounded=0;orthogonalLoop=1;jettySize=auto;html=1;" parent="1" source="8bbRHCpA4bQuie2q-WtK-11" target="8bbRHCpA4bQuie2q-WtK-20" edge="1">
          <mxGeometry relative="1" as="geometry" />
        </mxCell>
        <mxCell id="8bbRHCpA4bQuie2q-WtK-11" value="y[i]" style="shape=parallelogram;perimeter=parallelogramPerimeter;whiteSpace=wrap;html=1;fixedSize=1;" parent="1" vertex="1">
          <mxGeometry x="2050" y="480" width="120" height="60" as="geometry" />
        </mxCell>
        <mxCell id="8bbRHCpA4bQuie2q-WtK-15" style="edgeStyle=orthogonalEdgeStyle;rounded=0;orthogonalLoop=1;jettySize=auto;html=1;entryX=0.5;entryY=1;entryDx=0;entryDy=0;" parent="1" source="8bbRHCpA4bQuie2q-WtK-13" target="8bbRHCpA4bQuie2q-WtK-6" edge="1">
          <mxGeometry relative="1" as="geometry" />
        </mxCell>
        <mxCell id="8bbRHCpA4bQuie2q-WtK-13" value="i++" style="whiteSpace=wrap;html=1;" parent="1" vertex="1">
          <mxGeometry x="1760" y="590" width="120" height="60" as="geometry" />
        </mxCell>
        <mxCell id="8bbRHCpA4bQuie2q-WtK-26" value="" style="edgeStyle=orthogonalEdgeStyle;rounded=0;orthogonalLoop=1;jettySize=auto;html=1;" parent="1" source="8bbRHCpA4bQuie2q-WtK-16" target="8bbRHCpA4bQuie2q-WtK-25" edge="1">
          <mxGeometry relative="1" as="geometry" />
        </mxCell>
        <mxCell id="8bbRHCpA4bQuie2q-WtK-16" value="avgX /= N" style="whiteSpace=wrap;html=1;" parent="1" vertex="1">
          <mxGeometry x="1760" y="700" width="120" height="60" as="geometry" />
        </mxCell>
        <mxCell id="8bbRHCpA4bQuie2q-WtK-23" style="edgeStyle=orthogonalEdgeStyle;rounded=0;orthogonalLoop=1;jettySize=auto;html=1;entryX=1;entryY=0.5;entryDx=0;entryDy=0;" parent="1" source="8bbRHCpA4bQuie2q-WtK-20" target="8bbRHCpA4bQuie2q-WtK-22" edge="1">
          <mxGeometry relative="1" as="geometry" />
        </mxCell>
        <mxCell id="8bbRHCpA4bQuie2q-WtK-20" value="avgX += x[i]" style="whiteSpace=wrap;html=1;" parent="1" vertex="1">
          <mxGeometry x="2050" y="590" width="120" height="60" as="geometry" />
        </mxCell>
        <mxCell id="8bbRHCpA4bQuie2q-WtK-24" style="edgeStyle=orthogonalEdgeStyle;rounded=0;orthogonalLoop=1;jettySize=auto;html=1;entryX=1;entryY=0.5;entryDx=0;entryDy=0;" parent="1" source="8bbRHCpA4bQuie2q-WtK-22" target="8bbRHCpA4bQuie2q-WtK-13" edge="1">
          <mxGeometry relative="1" as="geometry" />
        </mxCell>
        <mxCell id="8bbRHCpA4bQuie2q-WtK-22" value="avgY += y[i]" style="whiteSpace=wrap;html=1;" parent="1" vertex="1">
          <mxGeometry x="1910" y="590" width="120" height="60" as="geometry" />
        </mxCell>
        <mxCell id="8bbRHCpA4bQuie2q-WtK-28" value="" style="edgeStyle=orthogonalEdgeStyle;rounded=0;orthogonalLoop=1;jettySize=auto;html=1;" parent="1" source="8bbRHCpA4bQuie2q-WtK-25" target="8bbRHCpA4bQuie2q-WtK-27" edge="1">
          <mxGeometry relative="1" as="geometry" />
        </mxCell>
        <mxCell id="8bbRHCpA4bQuie2q-WtK-25" value="avgY /= N" style="whiteSpace=wrap;html=1;" parent="1" vertex="1">
          <mxGeometry x="1760" y="790" width="120" height="60" as="geometry" />
        </mxCell>
        <mxCell id="8bbRHCpA4bQuie2q-WtK-30" value="" style="edgeStyle=orthogonalEdgeStyle;rounded=0;orthogonalLoop=1;jettySize=auto;html=1;" parent="1" source="8bbRHCpA4bQuie2q-WtK-27" target="8bbRHCpA4bQuie2q-WtK-29" edge="1">
          <mxGeometry relative="1" as="geometry" />
        </mxCell>
        <mxCell id="8bbRHCpA4bQuie2q-WtK-31" value="Yes" style="edgeLabel;html=1;align=center;verticalAlign=middle;resizable=0;points=[];" parent="8bbRHCpA4bQuie2q-WtK-30" vertex="1" connectable="0">
          <mxGeometry x="-0.1346" y="1" relative="1" as="geometry">
            <mxPoint as="offset" />
          </mxGeometry>
        </mxCell>
        <mxCell id="8bbRHCpA4bQuie2q-WtK-42" value="" style="edgeStyle=orthogonalEdgeStyle;rounded=0;orthogonalLoop=1;jettySize=auto;html=1;" parent="1" source="8bbRHCpA4bQuie2q-WtK-27" target="8bbRHCpA4bQuie2q-WtK-41" edge="1">
          <mxGeometry relative="1" as="geometry">
            <Array as="points">
              <mxPoint x="1720" y="930" />
              <mxPoint x="1720" y="1160" />
            </Array>
          </mxGeometry>
        </mxCell>
        <mxCell id="8bbRHCpA4bQuie2q-WtK-43" value="No" style="edgeLabel;html=1;align=center;verticalAlign=middle;resizable=0;points=[];" parent="8bbRHCpA4bQuie2q-WtK-42" vertex="1" connectable="0">
          <mxGeometry x="-0.8257" relative="1" as="geometry">
            <mxPoint as="offset" />
          </mxGeometry>
        </mxCell>
        <mxCell id="8bbRHCpA4bQuie2q-WtK-27" value="i &amp;lt; N" style="rhombus;whiteSpace=wrap;html=1;" parent="1" vertex="1">
          <mxGeometry x="1780" y="890" width="80" height="80" as="geometry" />
        </mxCell>
        <mxCell id="8bbRHCpA4bQuie2q-WtK-37" style="edgeStyle=orthogonalEdgeStyle;rounded=0;orthogonalLoop=1;jettySize=auto;html=1;entryX=0;entryY=0.5;entryDx=0;entryDy=0;" parent="1" source="8bbRHCpA4bQuie2q-WtK-29" target="8bbRHCpA4bQuie2q-WtK-32" edge="1">
          <mxGeometry relative="1" as="geometry" />
        </mxCell>
        <mxCell id="8bbRHCpA4bQuie2q-WtK-29" value="aX += pow(x[i] - avgX, 2)" style="whiteSpace=wrap;html=1;" parent="1" vertex="1">
          <mxGeometry x="1920" y="900" width="150" height="60" as="geometry" />
        </mxCell>
        <mxCell id="8bbRHCpA4bQuie2q-WtK-39" value="" style="edgeStyle=orthogonalEdgeStyle;rounded=0;orthogonalLoop=1;jettySize=auto;html=1;" parent="1" source="8bbRHCpA4bQuie2q-WtK-32" target="8bbRHCpA4bQuie2q-WtK-38" edge="1">
          <mxGeometry relative="1" as="geometry" />
        </mxCell>
        <mxCell id="8bbRHCpA4bQuie2q-WtK-32" value="aY += pow(y[i] - avgY, 2)" style="whiteSpace=wrap;html=1;" parent="1" vertex="1">
          <mxGeometry x="2110" y="900" width="150" height="60" as="geometry" />
        </mxCell>
        <mxCell id="8bbRHCpA4bQuie2q-WtK-36" style="edgeStyle=orthogonalEdgeStyle;rounded=0;orthogonalLoop=1;jettySize=auto;html=1;" parent="1" source="8bbRHCpA4bQuie2q-WtK-34" target="8bbRHCpA4bQuie2q-WtK-27" edge="1">
          <mxGeometry relative="1" as="geometry" />
        </mxCell>
        <mxCell id="8bbRHCpA4bQuie2q-WtK-34" value="i++" style="whiteSpace=wrap;html=1;" parent="1" vertex="1">
          <mxGeometry x="1760" y="1000" width="120" height="60" as="geometry" />
        </mxCell>
        <mxCell id="8bbRHCpA4bQuie2q-WtK-40" style="edgeStyle=orthogonalEdgeStyle;rounded=0;orthogonalLoop=1;jettySize=auto;html=1;entryX=1;entryY=0.5;entryDx=0;entryDy=0;" parent="1" source="8bbRHCpA4bQuie2q-WtK-38" target="8bbRHCpA4bQuie2q-WtK-34" edge="1">
          <mxGeometry relative="1" as="geometry" />
        </mxCell>
        <mxCell id="8bbRHCpA4bQuie2q-WtK-38" value="combXY += (x[i] - avgX) * (y[i] - avgY)" style="whiteSpace=wrap;html=1;" parent="1" vertex="1">
          <mxGeometry x="2075" y="1000" width="220" height="60" as="geometry" />
        </mxCell>
        <mxCell id="8bbRHCpA4bQuie2q-WtK-45" value="" style="edgeStyle=orthogonalEdgeStyle;rounded=0;orthogonalLoop=1;jettySize=auto;html=1;" parent="1" source="8bbRHCpA4bQuie2q-WtK-41" target="8bbRHCpA4bQuie2q-WtK-44" edge="1">
          <mxGeometry relative="1" as="geometry" />
        </mxCell>
        <mxCell id="8bbRHCpA4bQuie2q-WtK-41" value="R = combXY / sqrt(aX * aY)" style="whiteSpace=wrap;html=1;" parent="1" vertex="1">
          <mxGeometry x="1760" y="1130" width="160" height="60" as="geometry" />
        </mxCell>
        <mxCell id="8bbRHCpA4bQuie2q-WtK-47" style="edgeStyle=orthogonalEdgeStyle;rounded=0;orthogonalLoop=1;jettySize=auto;html=1;entryX=0.5;entryY=0;entryDx=0;entryDy=0;" parent="1" source="8bbRHCpA4bQuie2q-WtK-44" target="8bbRHCpA4bQuie2q-WtK-46" edge="1">
          <mxGeometry relative="1" as="geometry" />
        </mxCell>
        <mxCell id="8bbRHCpA4bQuie2q-WtK-44" value="R" style="shape=parallelogram;perimeter=parallelogramPerimeter;whiteSpace=wrap;html=1;fixedSize=1;" parent="1" vertex="1">
          <mxGeometry x="1780" y="1230" width="120" height="60" as="geometry" />
        </mxCell>
        <mxCell id="8bbRHCpA4bQuie2q-WtK-46" value="end" style="ellipse;whiteSpace=wrap;html=1;" parent="1" vertex="1">
          <mxGeometry x="1780" y="1320" width="120" height="80" as="geometry" />
        </mxCell>
        <mxCell id="8bbRHCpA4bQuie2q-WtK-48" value="Corrleation Algorithm" style="text;html=1;align=center;verticalAlign=middle;resizable=0;points=[];autosize=1;strokeColor=none;fillColor=none;fontSize=23;fontStyle=1" parent="1" vertex="1">
          <mxGeometry x="1700" y="70" width="240" height="40" as="geometry" />
        </mxCell>
      </root>
    </mxGraphModel>
  </diagram>
</mxfile>
